<svg xmlns="http://www.w3.org/2000/svg" xml:space="preserve" width="42" height="49.72" viewBox="0 0 11.11 13.15"><g style="display:inline"><path d="M4.7 11.78a5.25 5.25 0 0 1-4.3-5.5 5.35 5.35 0 0 1 3.99-4.83c1.63-.4 3.37.07 4.6 1.24a5.4 5.4 0 0 1 1.57 5.23 5 5 0 0 1-1.46 2.47 5 5 0 0 1-2.56 1.37c-.43.1-1.38.1-1.85.02m1.84-.12a5.14 5.14 0 0 0 3.82-6.61A5.2 5.2 0 0 0 6.51 1.5a6 6 0 0 0-1.82-.02A5.2 5.2 0 0 0 .93 4.55a5.3 5.3 0 0 0-.24 3.5c.14.52.46 1.16.81 1.63a5.4 5.4 0 0 0 3.27 2c.43.08 1.39.06 1.77-.02m-1.08 0a2 2 0 0 0-.42-.09 5 5 0 0 1-4.3-5.93 5.1 5.1 0 0 1 3.87-3.99 4.8 4.8 0 0 1 4.2 1.21c.5.46.84.94 1.15 1.58.33.72.46 1.22.48 2.04.03.85-.1 1.53-.43 2.23a5 5 0 0 1-3.74 2.83c-.16.03-.31.07-.36.1-.1.08-.35.1-.45.02m0-.28c.07-.12.08-.18.05-.26-.07-.24-.24-1.27-.3-1.82a22 22 0 0 0-.26-1.84c-.09-.03-.09-.07 0-.57.06-.32.07-.43.04-.52l-.04-.12-.1.06c-.1.05-.12.05-.22 0l-.1-.06v.13q0 .14-.03.26-.03.13.04.07l.07-.13q.01-.1.02.02 0 .1-.08.15c-.13.09-.2.48-.12.73.04.17.04.2 0 .31-.05.13-.03.23.04.2q.05-.01.1.04.07.1.17-.01c.08-.07.09-.17.03-.2q-.04-.03-.01.07v.08c-.05-.04-.05-.28 0-.25.01 0 .08.02.13 0q.18.02.03.17-.15.12.01.09.09 0 .1.02c0 .04-.08.1-.13.1q.02.02.03.12t.07.12c.1.02.07.14-.03.14q-.08 0-.08.03t-.07.02q-.06-.01-.08.02-.01.04.05.04c.1 0 .13.09.03.11q-.08.02-.02.07c.06.06.07.08.02.15q-.04.08-.1-.01-.06-.07-.12-.06-.07.01-.06-.09t-.03-.1q-.04-.03-.04.07c0 .1-.07.12-.13.05q-.04-.03-.08.02c-.06.07-.18.07-.18 0q0-.15.11-.16.06 0 .05-.03-.03-.03-.06-.02c-.08.05-.17-.07-.2-.27v-.1q0-.04-.06-.04-.07 0-.01.08l.05.12c.02.1.09.23.12.23q.03 0-.02.05-.12.1-.1-.07c0-.04 0-.1-.02-.1-.06-.04-.05.15.02.26.06.1.05.2-.04.2-.06 0-.1-.09-.05-.17q.05-.07-.04-.04c-.08.02-.13-.07-.08-.16l.02-.1.03-.07q.04-.05 0-.05t-.03-.14-.05-.12c-.07.02-.17-.04-.17-.1q0-.04.09-.07.08-.05.14 0 .05.05.11.01.1-.04-.01-.04c-.08 0-.15-.09-.15-.17 0-.06.11-.08.2-.02.08.05.08.05.08-.05a.3.3 0 0 0-.09-.18q-.08-.08-.09-.12c0-.08.1-.18.19-.18q.08.01.09-.14c0-.14 0-.14-.16-.08q-.12.06-.12.13-.01.12-.25.07a.4.4 0 0 0-.2 0q-.26.1-.4-.2-.06-.15-.17-.19c-.1-.04-.1-.06-.09-.14q.03-.08-.08-.27l-.1-.19.17-.16c.36-.38.53-.71.73-1.43.16-.55.25-.78.35-.9l.1-.2q.05-.3.34-.44c.14-.07.18-.08.28-.05q.1.04.19.04c.11 0 .28.15.34.32.07.17.07.6.01.84-.05.18-.05.18.03.15.18-.07.47-.21.53-.26s.06-.05-.02-.2l-.13-.27c-.08-.14-.06-.61.02-.79l.19-.2c.16-.12.48-.1.62.03.11.1.19.27.19.42q0 .1.04.17c.04.07 0 .24-.17.64-.01.05 0 .07.12.09q.13.01.33.2l.27.24c.07.05.11.15.2.53.02.09.04.1.22.11.23.02.32.07 1.07.63a13 13 0 0 0 .95.67c0 .03.29.1.32.08l-.1-.1c-.1-.08-.1-.09-.03-.15q.05-.05.06-.02 0 .05-.04.05-.06-.01 0 .04c.03.04.1.01.1-.04s-.2-.26-.22-.22q-.01.04.01.04.04 0 .04.06.01.09-.05 0c-.06-.05-.06-.06 0-.14q.07-.1.14-.1.1 0-.02.04-.09.02-.04.05c.05.03.15-.03.15-.09q0-.03-.05-.03a.1.1 0 0 1-.08-.04q-.01-.04.02-.02c.05.04.05-.05 0-.12q-.05-.06-.02.01.01.06-.02.04-.03-.03-.01-.14t-.02-.12 0-.06l.02-.03c-.04.02-.1-.19-.06-.23.02-.03.22.22.22.29q0 .07.06.04.08-.01 0 .02-.03.04-.01.04t0 .04l-.05.1q0 .06.05-.02.05-.05.07-.04.02.04-.03.1-.09.08-.02.11.05.05.02 0-.02-.04.08.02c.12.05.12.17 0 .2q-.1.02-.03.06.07.05-.04.04-.06 0 .01.1.09.07.1 0v-.08q-.01-.08.05-.02t0 .07-.02.03c.08 0 0 .07-.08.07q-.08 0-.1.07t.04.05q.22-.09.22 0c0 .09-.13.29-.24.37q-.09.07-.06.13l.03.15q.02.13-.04-.01l-.05-.17q0-.07-.11-.06l-.17.03q-.07.04.03.1c.07.06.1.15.06.15l-.14-.07c-.14-.09-.17-.08-.23.07q-.05.13.04.07.15-.06.17.13c0 .1.2.3.28.28q.05-.03.02.06-.04.14.05-.04.06-.09-.05-.06t-.08-.07q.03-.15.15-.1.04.03 0-.02t-.03-.1-.02-.06-.04-.11.04-.07q.03.03.03.08c-.02.08.1.08.15 0q.03-.06 0-.05t-.03-.08.04-.1q.05.02.07-.05l.17-.2q.16-.14.12-.06c-.02.08-.06.4-.06.5q0 .05-.05.04t-.04 0q.01.04-.02.06-.04.01.06.02h.1l-.14.07-.14.07h.14q.22.02-.02.1l-.12.04h.12q.1 0 .1.04-.04.03-.18.02-.18-.03-.04.01.1.03.06.03-.03 0-.02.04.01.02.1.02.1-.03.01.02-.06.03-.12.02-.04-.01-.03.01t-.08.05h.12c.18 0 .2 0 .15.04a.2.2 0 0 1-.14.03q-.1-.01-.03.02.06.04 0 .06a.2.2 0 0 1-.13 0q-.06-.02-.03.01.05.03.17.05.25.03-.05.12l-.15.04.13.02q.12.03.15.06c.01.02-.33.09-.43.08q-.04 0-.03.03t-.04.03-.01.02l.08.06q.03.04.01-.02c-.02-.07.1-.12.25-.08.1.03.12.02-.18.14q-.12.05-.11.09.02.03.1-.02a.3.3 0 0 1 .2-.04l.1.02.1-.34a5.04 5.04 0 0 0-3.68-6.41 4.7 4.7 0 0 0-4.32 1.38A5 5 0 0 0 .83 5.6c-.07.32-.09.47-.09 1.04a3.3 3.3 0 0 0 .35 1.8l.15-.06.1-.02H1.2c-.15-.01-.2-.07-.07-.09.1-.01.1-.02-.1-.09q-.06-.01.02-.04.1-.02-.02-.05l-.08-.03.08-.03.1-.03h-.1q-.08 0-.05-.06 0-.05-.02-.05c-.03 0-.08-.29-.06-.35q.02-.02.14.09t.15.1q.02-.03.02.04t.04.12q.04.07.01-.03 0-.06.02-.07.04 0 .04.05t.03.03q.04 0 .04.05t.03.1q.03 0 .01-.11 0-.11.02-.12t.03.12q.01.21.13.23.03 0-.02-.05c-.05-.04-.1-.2-.07-.2l.1.05c.07.06.13.07.1.02q0-.03.02-.05.03-.01.04.06-.01.1.05-.04.09-.18-.06-.23a.2.2 0 0 1-.1-.12q-.02-.1.06-.05t.1-.01q.01-.05-.05-.05c-.07 0-.13-.1-.08-.12h-.01c-.08.01-.17-.09-.14-.17.03-.12.15-.24.23-.24q.06 0 .05-.04-.02-.04.06-.12.11-.12.07-.02 0 .06.03.07.03 0 .02-.05-.01-.04.02-.06.04 0-.06-.05c-.1-.04-.11-.07-.12-.16q0-.14.03-.05v.12q-.01.06.04.03a.1.1 0 0 1 .1.02q.04.04.04-.02t.03-.06.04-.05-.03-.06-.06-.05q0-.05.02-.03.03.01.03-.04t-.03-.05-.02-.08v-.04q-.02.05-.06.05t0-.06.1-.03.02-.04-.05-.05q-.02 0-.03-.07t.08-.07q.07 0 .05-.07t.05-.15q.14-.12.07.04-.04.07 0 .07c.06 0 .04.09-.04.15q-.06.07-.06.11 0 .06.02 0c.02-.06.11-.06.11 0q0 .06-.07.06-.1-.02-.05.13l.04.16q.07.08.08-.05 0-.1-.03-.01t-.04-.02q-.03-.13.04-.06c.07.03.1.17.05.22l-.1-.02q-.06-.04-.06.02t.07.08c.09.02.16.2.1.28q-.03.06-.1-.02-.03-.05-.02-.01.03.03.01.07l.02.08q.02.06.01.07l-.07-.1-.05-.1.01.1q.03.19.1.15.02-.01 0 .03c-.02.07.09.1.17.05q.06-.05.16.03.09.05.07.02t.03-.02q.06.03.03.07-.04.03.03.04.06.01.05-.04l.05.05q.07.08.06.17 0 .07.02.1.09.06-.08.17c-.05.03-.12.05-.13.04-.06-.03-.15.02-.12.07q.02.1-.1.01-.03-.05-.07.06-.07.17.02.16.04-.01.07-.08.02-.1.07-.01a.4.4 0 0 1 .05.2v.12l.05-.12a.4.4 0 0 1 .3-.27l.08-.02-.07.16q-.06.16-.11.19-.07.02 0-.05c.08-.09.12-.23.07-.23-.06 0-.14.04-.14.07q0 .03.05.01.1-.04.01.1-.09.17 0 .19.05.01.03-.02c-.03-.04.15 0 .2.04.06.05-.18.2-.3.18q-.03 0-.03.04t-.03 0q-.04-.06-.08-.06-.05 0-.05-.09-.01-.16-.16-.18-.06 0-.07-.03 0-.04-.1-.09c-.09-.04-.1-.04-.2.04q-.09.07-.07.08t-.03.05-.03.15l.03.1.02-.1q0-.1.06-.11l.17-.01q.11 0 .1-.04c-.03-.05-.17-.05-.23 0q-.06.07 0-.01.11-.13.31.04c.1.07.12.12.12.23q0 .18.06.07.07-.1.02.02l-.13.18-.11.1h.11c.13 0 .27-.14.23-.24q-.01-.06.03-.02.03.04.14 0c.1-.05.12-.05.26 0q.17.07.19.15.01.1.05.14a.1.1 0 0 1 .02.09q-.03.04-.02-.01l-.06-.1q-.04-.05-.1.02-.06.09.02.01t.06.05q0 .08-.06.12-.07.04 0 .04.04 0 .08-.03.04-.04.05.06t-.12.14-.16.03-.03 0q0 .05.05.06c.06.02.07.13.01.13q-.04 0 0 .05.07.06-.07.1-.11.06-.06.06.07 0 .04.06l-.06.19-.02.12.09-.14.09-.2q0-.04.05-.12t.11-.03q.16.1-.04.17-.23.11-.02.11c.15 0 .15.07 0 .08-.12.01-.24.08-.14.08q.03 0 .02.03-.02.03-.06.02-.04-.02-.02.01.06.09.17-.01.06-.06.07-.03 0 .04-.06.08-.1.1 0 .1.03 0 .03.05c-.01.06.03.07.42.07l.44.01-.55.02a3 3 0 0 1-.64 0q0 .04.04.04.03 0 .03.04t-.1.01q-.13-.04.03.05.13.07.15.03.03-.04.03.02l-.01.06c-.05 0-.3-.12-.35-.17q-.06-.04-.09-.03c-.03.03-.04.02.33.26a5 5 0 0 0 2.29.78c.13 0 .15 0 .22-.15m-.45-.22q.05-.01.07 0 .02.02-.04.02-.07 0-.03-.02m-.69-1.03h.34q.13.02-.17.02-.29 0-.17-.02m-.07-1.07q-.08-.1 0-.2c.06-.05.14.01.14.1s-.09.15-.14.1m-.76-.72c-.04-.05.05-.16.13-.15.11.02.1.15-.01.16zm1.07-.35q-.03-.05-.07-.04c-.05.04-.06-.07-.02-.15q.05-.09.07-.04a.1.1 0 0 0 .08.04q.05 0-.02-.08c-.09-.08-.08-.2 0-.26q.15-.1.1.26-.02.1 0 .2.04.09-.02.1c-.07.03-.07.03-.12-.03m-2.98-.1q-.1-.05-.07-.06c.06 0-.07-.11-.23-.2l-.22-.15L1 7.4l.2.07q.17.07.24.13c.1.09.07 0-.03-.1q-.07-.07-.08-.12 0-.02.05.03t.07.05c.04-.04-.05-.17-.1-.17q-.06 0-.04-.04t-.04.03l-.07.09-.12-.1c-.1-.1-.1-.12-.08-.18l.06-.13q.02-.07.08-.04.06.01.1-.02.05-.04.1.05c.07.1.1.11.18.04q.06-.07.05 0 0 .05-.05.05c-.05 0-.06.03-.04.19q.04.29.09.18c.01-.03.02.05.02.16q0 .2.05.26.04.05.04-.02 0-.05.03-.06c.05 0 .05.07.01.13q-.02.04-.13 0m-.35-.34-.07-.04q-.03 0 .02.04.1.06.05 0m.03-.33c.07-.07.07-.07.1 0q.03.08.02 0 0-.04-.02-.07c-.03-.03-.03-.05-.04-.15q0-.04-.13-.04-.14-.01-.1.07a.1.1 0 0 1-.05.1q-.08.03.03.1c.11.09.11.09.2 0m-.15-.1q.02-.16.09-.06.02.04.05-.02.01-.08.04-.02 0 .06-.09.13l-.1.09zm3.7.53q0-.03.03-.03t.04.03-.04.04zm4.76-.26c-.04-.08-.02-.16.02-.12.03.03.06.2.03.2zm.08-.14q-.07-.16.05-.07.05.05.02.1-.03.08-.07-.03m-8.27-.4q.02-.06-.06-.03t-.04-.06q.05-.09-.04.02c-.1.11-.12.12-.18.05-.05-.05-.07-.38-.02-.38q.03 0 .1-.07.14-.11 0 .05-.04.06 0 .04t.11.04q.08.08.1.02 0-.04.06-.04t.04-.07q-.01-.06.01-.1c.04-.01.01-.08-.04-.08q-.04.01-.07.08t0 .05.04.01q-.01.04-.08.04t-.05-.07-.02-.08h.03q.09.01.08-.05 0-.05-.05-.03-.05 0-.05-.02 0-.04-.07.01c-.06.06-.22.1-.17.04q.01-.02-.01-.07-.05-.04 0-.06.03-.03.03-.08c0-.08.13-.2.16-.15q.04.04-.02.01t-.02.03l.03.08.02.02q.03-.02.03-.12c0-.11-.02-.13-.16-.1q-.05.03-.06-.06-.03-.08.08-.08h.13q.07 0-.05-.12-.1-.14.02-.16.04 0 0 .02c-.06.03-.06.09-.01.09.07 0 .07-.11 0-.18s-.07-.17 0-.12q.03.02.01.05 0 .04.03.01.07 0 .02-.1-.05-.08.03-.16l.07-.07.02.1v.13q-.04.04 0 .1.04.05.01-.03t.02-.02q.06.04-.01.09-.1.08-.02.15.04.01.01-.02-.03-.05.01-.02.04.02.03.05t.05.05c.09.02.07.1-.02.12s-.1.04-.14.16q-.01.1.02.08t.03-.1c0-.07.08-.07.1.01q.01.06-.02 0-.04-.05-.04-.01t.03.06.02.05q0 .03.03.05.05.03.03-.07-.02-.18.04.04c.03.1.02.1-.09.08-.1 0-.12 0-.12.1q0 .1.01.03.02-.13.11-.05.05.02.02.09-.02.05.05.13.13.14-.02.1-.07-.02-.01.04.04.05.1.04.07-.02.01.02-.06.03 0 .13.03.08.02.12t.02.04q.04.02.01.1t-.05.03q-.03-.03 0-.07.04-.01-.02-.04-.05-.01-.03.01 0 .04-.02.04t-.04.05q0 .05-.07.05t-.04-.06m-.2-.08q.05-.08-.06-.07-.08 0-.09.04 0 .03.06.02t.03.03q-.03.11.06-.02m.31 0-.04-.06q-.05-.04 0-.04.03 0 .04-.03l.02-.09q.02-.06 0-.08t-.05.07l-.06.1q-.01-.01 0-.07.03-.07-.01-.02-.04.03-.01.1t.02.11q-.02.05.04.05t.05-.03m-.36-.18c-.02-.1-.1-.13-.09-.03q0 .06.04.05.02-.01.02.02l.02.04zm.1-.05c-.03-.03-.1.02-.07.06q.03.04.06 0t.02-.06m-.11-.42q-.04-.09-.1-.03c-.03.03.05.12.09.1q.02-.02 0-.07m.3-.06q-.03-.03-.03.04t.02.05zM1.15 6q-.06-.05-.08-.04c-.02.03.07.13.1.1q.02 0-.02-.06m-.02-.3q0-.03-.05-.03t-.06.03q0 .03.06.04.05 0 .05-.04m.28-.16q.04.03.06.01.05-.04-.1-.07-.07 0-.09.06-.02.1.04.02.04-.08.09-.02m.26 1.1-.04-.14q0-.02.05.08c.06.14.05.2-.01.06m.27-.14q.01-.05.05-.06.05 0 .06.06T2 6.56l-.05-.05m-.38-.35q-.05-.08-.03-.13.02-.04.02.02 0 .08.05.11.03.04.02.06-.02 0-.06-.06m5.06 5.25a5 5 0 0 0 1.87-.92q-.03-.01-.2.07-.28.13-.28.07l.07-.16q.05-.12.03-.13l-.03.03q.01.1-.7.11c-.27 0-.47 0-.45-.01a3 3 0 0 1 .51-.03c.37 0 .47 0 .44-.04q-.1-.1.03-.1c.08 0 .08 0 0-.1-.1-.09-.1-.09.09-.02q.06.03.03-.03 0-.06.02-.06t.01-.04q-.03-.03-.16-.03t-.14-.04.13-.03q.21.02 0-.11-.1-.05-.12-.12c-.02-.07.08-.11.15-.05q.05.05.05-.02 0-.05.06-.06t.05.06q0 .05.04.05t0 .04-.02.03.07-.03c.03-.05-.06-.18-.13-.18s-.1-.12-.03-.16c.05-.03.15.05.13.1s.1.25.17.26q.04 0 .03-.03t-.05-.01c-.02.01-.08-.2-.06-.22q.03 0 .11.08.15.16-.03.02-.08-.06.01.04.17.14.13-.06c-.04-.12-.13-.2-.16-.15q-.03.04-.03-.02t-.08-.06a.2.2 0 0 1-.13-.04c-.05-.06-.05-.27 0-.3q.04-.03.01.02-.01.03.07-.04.17-.17.22-.05.02.07.05.01.03-.05.03.02.02.13.12-.03.06-.08.12-.09t-.05-.07q-.2-.15.06-.13c.1 0 .12.03.16.13q.04.1.07.08.02-.01 0 .07-.06.34.53.33h.2l.2-.37c.2-.37.2-.37.08-.27q-.1.09-.17.1-.09.02 0 .08c.04.03 0 .22-.07.3a.2.2 0 0 1-.16.07q-.08 0-.12.03c-.04.08-.47-.12-.47-.22q0-.02.07.04.1.09.06 0l-.03-.1-.07-.1c-.07-.09-.1-.2-.04-.23.04-.02-.22-.3-.28-.3q-.04 0-.01.1.02.12-.04.11t-.04-.12c0-.15-.06-.17-.08-.03q-.03.24-.39.43c-.16.1-.21.14-.23.22q-.04.22-.57.29c-.34.04-.4.02-.37-.16l.43-2.64c0-.03-.33-.02-.38.01-.06.04-.06.2 0 .6.04.3.04.32-.03.37-.07.06-.08.12-.1.68-.03.74-.07.98-.29 1.55-.15.42-.16.46-.17.81 0 .4-.03.5-.17.5l-.12-.04c-.06-.03-.06 0-.06.26v.3l.12-.02c.07 0 .28-.05.48-.1m-.14-.25h.25l-.11.01q-.22 0-.14-.01m.4-.22h.27q.1.02-.13.02-.22 0-.13-.02m.49-.2q.07-.02.14 0l-.08.01q-.12 0-.06-.02m-.32-.64q.07-.01.14 0l-.08.01q-.12 0-.06-.01M8.8 8.57l-.08-.15-.03-.09.1.1q.1.1.1.15l-.03.05zm-.27-.28q0-.06.02-.02v.07q-.03.02-.02-.05m-.22 2.22q.08-.05.02-.02l-.15.03q-.07 0-.1.05c-.02.05.09.02.23-.06m-5.78-.13-.08-.1-.08-.07.1.03q.1.03.1-.04-.01-.07-.04-.03c-.03.05-.12 0-.15-.1q-.02-.03-.02.08c0 .12.07.25.14.25zm.49-.02q0-.03-.04-.03-.03 0-.01.03.01.04.03.04zm5.74-.13c-.03-.05.1-.17.13-.12q0 .03 0 0c0-.06-.11-.04-.18.03q-.06.06-.08 0c-.04-.06-.09 0-.06.06q.03.06.1.04.11-.04.02.03-.05.04-.06.1 0 .04.07-.03.07-.06.06-.1m-5.72.02q.03-.07-.11.02-.1.07.01.03.08-.02.1-.05m5.15-.01q0-.05-.04-.06c-.06 0-.1.06-.04.09q.1.04.08-.03M2.7 10q0-.08.06-.13c.08-.07.22-.3.23-.37q0-.09.02 0 .01.05.05.05.1-.05-.06-.11l-.16-.06q-.06-.04-.11.1-.1.23.06.08t.09.08q-.09.24-.06.02.04-.14-.03-.05-.1.15-.01.16.03.01-.05.1a.3.3 0 0 0-.1.2q0 .12.04.05zm5.76-.1c-.05-.05-.15-.06-.15-.02q0 .03.05.02.05-.02.08.11.04.19.04.03 0-.1-.02-.14m.7 0-.1-.01q-.11 0-.07.02.04.04.01.09-.01.05-.05.04-.03-.02-.02.03.01.07.13-.04zm-1.03 0-.04-.17q0-.03-.04-.03-.12.01.02.25.15.26.06-.04m-6 .06q-.02-.02.03-.07.07-.03.01-.07-.04-.02-.02.01.02.04-.06.07-.11.02-.05.07.03.04.07.03.03-.03.01-.04m.82-.03v-.09l-.09.08-.09.08h.1q.08.02.08-.07m5.28-.04q-.08-.09-.06 0l.02.1q.04.02.06 0 .04-.04-.02-.1m.38.1q.01-.04-.01-.04-.04 0-.04.03l.01.04zm-5.28-.03q-.02-.01-.07 0-.04.01.02.02.06 0 .05-.02m-1.38-.13q0-.04-.07-.09-.05-.04-.04-.08.02-.03-.04-.03c-.06 0-.06.01.09.18q.08.11.06.02m.61.01-.01-.03-.04.03q-.01.04.01.04t.04-.04m6.03-.02q-.07-.08.04-.04.09.03.04-.02-.04-.03-.1-.01t-.01.07l.06.06zm-6.01-.08c-.02-.02-.16.03-.16.07l.09-.02q.07-.03.07-.05m6.68.05-.06-.01q-.06 0-.06.03c.02.03.12 0 .12-.02M3.3 9.77q.05-.03-.05-.02-.08 0-.09.03c0 .04.08.03.14 0m4.66 0q0-.03-.02-.03l-.03.03q-.02.04.01.04.04 0 .04-.04m-.06-.1c-.02-.02-.08.03-.08.07q0 .02.05-.01.04-.05.03-.06m.85.04-.05-.17-.03-.1v.1c0 .1.05.23.09.23zM2.06 9.7c0-.04-.11-.07-.15-.05q-.03.02-.01.04c.02.04.16.04.16 0m.42-.2q0-.05-.04-.04c-.03 0-.05.08-.05.15v.14l.04-.1zm.08.14v-.2c.01-.1 0-.13-.09-.18q-.08-.05-.12-.04l.1.07q.19.11.02.07-.12-.04-.01.05.07.07.04.18-.02.1.01.11t.05-.06m.45.03q0-.03.06-.02.08.04.01-.02-.1-.08-.12.02 0 .05.02.05zm5.6-.08q-.03-.12.03-.17t.05-.1.06-.12q.08-.08-.02-.06l-.15-.04q-.12-.08-.11.09 0 .08-.03.09t0 .07q.02.13.1-.08.05-.14.04-.03l-.03.26c-.02.15-.01.19.08.2zm.78.03q.09-.07-.06-.06-.1 0-.11.05 0 .04-.05.03-.05 0-.07.02c-.04.07.22.03.29-.04m-.52 0q0-.03-.03-.03l-.08-.04q-.04-.03.01.04.1.1.1.02m-6.53-.03q0-.03-.06-.03-.08 0-.01.03.09.08.07 0m3.7-1q-.09-.98-.1-.12c-.03.49-.03.61 0 1 0 .17 0 .17.08-.16.06-.3.06-.37.03-.72m-4.26.86q0-.12-.14-.07-.1.01-.02.1c.06.09.16.07.16-.03M2 9.5q.04-.1-.07-.05-.05.02-.04.05.06.06.1 0m.33-.09c0-.17-.05-.18-.06-.01q0 .12.03.13.03 0 .03-.12m5.75.1-.03-.06q-.03-.02-.03.03t.03.05.03-.03m.82-.22q.03.06.02-.05c-.01-.14-.1-.17-.1-.03q0 .1-.05.17t0 .11q.03.07.06-.1.03-.16.07-.1m.34.11q.11-.12.06-.1l-.1.02q-.05.01-.09.1l-.02.11zm.24.04q-.03-.03-.09.04-.08.09.02.02.08-.04.07-.06M2.22 9.4q-.01-.04-.02.02 0 .06.02.05.01-.02 0-.07m.46 0q.03-.08.01-.13v-.1q0-.06-.03-.1-.03-.02-.04-.09 0-.07-.05-.04-.06 0 0 .1.05.09.05.26-.03.29.06.1m-.8-.03q.02.05.09-.02.05-.05.03-.08l-.05.03q-.03.08-.07 0-.02-.04-.01-.08 0-.02-.02-.02-.02.01-.03.11t.02.07q.01-.06.04 0m.25-.05q.06.03 0-.09-.04-.04-.04-.01v.09q-.02.03 0 .02 0-.03.04 0m.88 0q0-.07.05-.02c.07.06.27-.01.27-.1q0-.04-.06-.01l-.2.05c-.12.02-.16.01-.23-.05q-.1-.1-.11-.03-.03.06.04.13c.09.1.24.11.24.03m6.54.02q.02-.02-.03-.03-.04 0-.03.03 0 .03.03.03zm-.47-.04q0-.03-.04-.03-.03 0-.02.03l.04.04zm-7.53-.1q-.03-.03-.08-.04-.06 0-.01.08t.08.03 0-.07m.2.03q.04 0 .01-.02l.02-.08q.04-.05-.03.01c-.09.07-.09.07-.14 0q-.04-.06-.05-.02 0 .04.04.06.03.02.01.06t.04.02zm.82-.08-.01.05q0 .07.01.04zm5.71.1a.1.1 0 0 0 .06-.08q0-.08.03 0 .04.1.03.02l.03-.12q.02-.08-.01-.02-.05.05-.06 0-.03-.03-.11.03-.14.1-.05.13h-.03q-.07 0-.1.02c-.02.04.12.05.21.02m-.76-.07q.17-.05.2-.1.02-.03-.04 0a1 1 0 0 1-.32.07c-.25.03-.25.03-.2-.04a7 7 0 0 0 .34-2.44l-.03-.28-.06.28a44 44 0 0 0-.43 2.45l-.02.11h.19c.1 0 .27-.02.37-.05m-4.58-.03-.04-.04q-.03-.01-.03.01 0 .04.03.04zm.16-.02q-.02-.04.06-.07.06-.03.04-.04c-.06 0-.23.1-.2.12.04.04.12.02.1-.01m6.36-.02q.04-.05.03-.08-.01-.04.02-.07.05-.05.05-.18 0-.11-.01-.06l-.06.11q-.03.05 0 .05c.09 0 0 .07-.1.1l-.12.03h.1q.13.01.06.04-.06.03-.19 0-.23-.03-.05.07.2.08.27-.01m-7.84-.04q.08 0 .06-.02T1.38 9q-.03 0 .08-.03l.12-.03h-.11q-.2 0-.12.13.03.09.11.04a.3.3 0 0 1 .16-.02m8.05 0q.04-.05.07-.16l.02-.12-.1.09q-.08.07-.07.1l-.02.08c-.04.08.04.1.1.02m-7.35-.03q.13-.11-.08-.1-.1.01-.22-.07-.14-.1-.15-.05-.02.11.14.22.2.09.31 0m.43-.13c0-.19 0-.19-.04-.09a.3.3 0 0 0-.04.19q.07.2.08-.1m4.64.16h-.08l.04.01q.08 0 .04-.01m1.3-.03c-.1-.04-.1-.04-.05-.1q.1-.12-.01-.01-.14.1-.02.14c.13.03.2.01.09-.03m-5.8-.1q0-.05-.03-.04t-.03-.05q0-.08.07-.11.08-.05.05.01T3 8.8q.05-.02.06-.06c0-.04.1 0 .19.07q.07.08.05 0-.03-.04-.16-.11c-.12-.06-.15-.06-.23-.02q-.09.04-.09.2 0 .12.04.14.04 0 .04-.06M7.63 9c.14 0 .17 0 .2-.09q.05-.1 0-.1h-.1q-.03 0 .04.02.1-.01.03.05c-.07.06-.18.1-.24.06q-.05-.04.03-.06t.07-.04c-.03-.03-.25.08-.31.15q-.08.08.03.04zm.05-.25c.23-.05.47-.16.5-.22q0-.04-.09-.09c-.12-.05-.14-.13-.14-.63a5 5 0 0 0-.2-1.48c.03-.03.16.46.2.73l.05.77c.02.38.04.5.07.46.02-.03.17-.15.34-.27.32-.23.47-.37.6-.58.07-.12.43-1.08.41-1.1-.42-.25-.64-.4-1-.68-.66-.49-.76-.54-1-.52a3.3 3.3 0 0 0-1.69 1.03q0-.03.06-.13.14-.21-.1.03-.13.11-.12.07a1 1 0 0 1 .2-.2l.18-.13-.13-.03c-.11-.02-.16-.02-.25.03l-.1.06.08-.07.11-.08-.06-.16a1 1 0 0 1-.09-.39c0-.21 0-.22-.12-.29-.15-.09-.16-.09-.15-.03.01.12 0 .14-.13.12-.2-.03-.3.03-.43.32-.12.25-.12.26-.06.33q.06.08.1.03c.05-.05.2-.04.2.02s.01.07.16.01q.11-.05.17 0c.09.08.05.32-.06.42l-.09.07.06.17q.06.14.03.14l-.07-.16c-.04-.14-.1-.19-.1-.07 0 .1.25.46.4.6s.47.23.67.2q.35-.06.71-.45c.13-.13.23-.26.23-.27L7 6.23c-.04-.05-.06-.04-.18.12q-.24.29-.54.47-.14.09.02-.03l.38-.36c.2-.22.26-.29.26-.38 0-.23.17-.34.33-.2q.05.05.04.01-.04-.07.09 0 .07.04.14.18c.06.15.19.73.16.76l-.1-.33-.08-.33a7 7 0 0 1-.17 2.52L7.24 9l.13-.1c.07-.06.2-.12.3-.15m.77-1.6a5 5 0 0 1-.33-.91c.02.01.09.19.16.38l.33.82zM5.5 6.77l-.2-.19q-.1-.1.03.01l.24.19q.13.08.1.09zm3.11-.53c-.5-.53-.64-.7-.29-.34.34.35.71.76.69.76zM7.55 5.8l-.07-.08zq.12.09.07.09zm-.2-.08h.09l-.05.01q-.07 0-.04-.01m-2.27-.27.18-.06-.03.04a.3.3 0 0 1-.18.06q-.16.01.03-.04m4.11 3.52-.05-.03q-.05-.03-.03.01c.02.03.08.05.08.02m-7.35-.15-.06-.17a.3.3 0 0 1-.04-.16c-.01-.15-.07-.11-.1.07-.03.13-.02.17.06.27q.17.23.14-.01m7.55.1q.01-.04-.07-.04-.1 0-.07.03.01.04.07.04.04 0 .07-.04M2.43 8.8c.02-.03-.1-.02-.28.03l-.07.02.07.03c.07.03.25-.02.28-.08m.78.01q-.03-.03-.09-.04-.07-.01 0 .04.07.04.04.08-.01.04.03 0 .03-.04.02-.08m5.96-.03q0-.16-.05-.1c-.05.04-.05.14 0 .2l.04.03zm-7.64.06q0-.03-.12-.03-.14 0-.04-.04l.07-.03h-.07q-.17.01-.14.1c.03.05.3.05.3 0m.1 0q0-.03-.03-.03t-.02.03l.04.04zm8.06-.13c.02-.06 0-.1-.1-.22q-.21-.2-.23-.1 0 .02.04.03c.09 0 .2.18.2.3q.01.21.1 0m-7.66 0a.4.4 0 0 1-.12-.16q-.03-.1-.02.02c0 .1.1.24.19.24q.06 0-.05-.1m2.66-.01q-.01-.04-.02.02 0 .06.02.04zm4.36-.17c-.02-.03-.11.08-.11.14q.02.15.08-.01zm.44.17q-.02-.04-.02.02t.02.04zm-8-.03q-.01-.02-.13-.01-.15 0-.06-.03.11-.05-.08-.01-.07.01-.06.06c.02.04.33.03.33 0m.97.01q.04-.14-.07-.01-.07.08 0 .07.04 0 .07-.06m5.67 0 .1-.07q-.04 0-.14.06-.2.13.04.01m-5.8-.04q0-.03-.06-.02-.07.02-.07.05c0 .05.11.02.13-.03m-.27.01L2 8.61q-.06-.06-.03 0c.02.06.09.1.09.05m-.1-.4c.06-.1.06-.24.01-.55q-.03-.25-.12-.15-.06.05-.08.04t-.02.04.05.03q.04 0 .05.02 0 .03.04.03.05 0 .05.07l.02.19c.02.1 0 .14-.08.22s-.1.13-.1.25q.01.31.08.04zm2.7.31q.05-.06.03-.07-.02 0-.06.07l-.02.07q.02 0 .06-.07m4.75-.01c.12.06.13.06.13.01q-.01-.04-.08-.07c-.1-.05-.33 0-.36.1q-.04.06.1-.02c.1-.07.13-.07.21-.02m-8.13-.02q-.03-.04-.02-.07.03-.04-.06-.04-.1-.01-.02.04.06.03-.03.03t-.06.05.13.03.06-.04m8.1.05q-.01-.03-.06 0-.04 0 .02.01.06 0 .05-.01m.56-.05q.09-.08.01-.07-.05 0-.07.07l-.01.07zm-7.65.01h-.06q-.04.01.02.02.06 0 .04-.02m.18-.14q-.02-.04-.11-.04-.1-.01-.05.05.04.06.07 0 .03-.04.03.06-.01.14.04.04.03-.06.02-.1m.52.02q.06-.06.03-.07-.05 0-.12.07t-.02.07.11-.07m1.59.05q.04-.02.03-.05t-.07-.01.02-.05.07-.13q0-.03-.03.01-.04.08-.04-.01 0-.11-.04.03 0 .06-.04.1-.02.01 0 .07c.02.07.02.07.1.04m3.8-.18v-.14l-.06.11q-.04.1-.03.17c.04.1.09.01.09-.14m-6.27.1q.01-.04-.01-.03-.04.01-.04.05.01.07.05-.02m7.17 0q.07-.06-.19-.07l-.2-.01-.2-.17q-.25-.24-.24-.05 0 .07.1.1.12.02.23.14c.1.1.12.11.3.1q.17 0 .2-.03m-5.1-.03c-.04-.04-.15-.03-.15 0q0 .04.09.03.07 0 .06-.03m4.03-.05q-.02-.03-.02.04t.02.04zM1.65 8.3q.01-.04-.02-.03t-.03-.02-.02-.02c-.02.01.01.13.04.13zm.09 0-.01-.05-.04.06q0 .05.02.05t.03-.05m2.61-.05q-.03-.09 0-.12.03-.01.04.02 0 .06.02 0 .01-.04.05-.04.03 0 .01.04t.02.02q.07-.08-.1-.08-.1 0-.09.07 0 .05-.02.06t-.02.05.03.03q.02 0 .03.02 0 .04.03.04t0-.1m.36 0q.01-.06-.01-.05-.03.03-.03.07 0 .12.04-.02m4.22-.17-.16-.23q-.04 0-.1.07L8.58 8l.13.12c.29.28.41.25.21-.04m-7.4.17q0-.03-.04-.01t-.02-.06l.03-.09-.05.09q-.05.06-.08.05-.03-.02 0 0c.02.05.16.07.16.02m1.01-.04a.2.2 0 0 0-.13-.1q-.1-.01-.05.04l.22.14q.01-.01-.04-.08m5.8-.04q0-.02-.06.01-.04.05-.03.08c.03.04.09-.03.09-.09m-4.15.01q.01-.03-.01-.03-.04 0-.06.03-.01.04.01.04.04 0 .06-.04m.63-.02q-.05-.02-.02-.06.01-.03-.02 0c-.05.02-.02.08.04.08q.04 0 0-.02m4.3-.12.11.06.08.07-.07-.09q-.07-.07-.13-.06t-.07-.04.07-.03q.12.06.04-.1-.03-.09-.09-.07-.04.01-.1-.05c-.05-.07-.05-.07-.1-.01s-.05.08.07.27q.14.25.14.13.01-.07.05-.08m-7.73.03q-.05-.06-.02.02.03.05.05.04zm2.65.04q-.07-.04-.08-.1 0-.05-.02-.01c-.03.06.05.15.12.15q.06 0-.02-.04m5.6-.19c0-.06-.16-.37-.2-.37v.1q.02.1-.06.08c-.07-.01-.16.05-.16.12l.04.15q.04.12.07.03.03-.06 0-.13-.07-.13.03-.09.03.02.02.06-.02.03 0 .03.11-.02.05.05l-.02.06.08-.06c.07-.07.13-.06.08.02q-.03.05 0 .09l-.03.02q-.03 0-.02.04c.03.05.12-.1.12-.2m-.16-.07q.01-.06-.01-.04t-.04-.01c0-.07.07-.08.12-.02q.07.07.02.09-.12.07-.1-.02m-5.21.21q.04-.16-.05-.03-.03.07 0 .08t.05-.05m5.55.02q-.02-.1-.1-.02-.06.05.02.05t.08-.03m-7.47-.14c0-.13 0-.15-.06-.15q-.1.02 0-.06c.07-.06.07-.06 0-.18q-.05-.12-.12-.15-.07-.04.02-.01c.07 0 .08 0 .08-.08v-.1l.03.1.02.1.05-.11q.05-.12.08-.06t.03-.02q0-.1-.1-.02c-.06.07-.23-.07-.28-.24q-.04-.11-.04-.07c0 .07-.07.08-.1 0s-.1-.05-.1.05q.01.2.1.17c.04-.04.03-.1-.02-.08q-.05 0-.05-.03 0-.05.1-.03c.11.03.11.03.11.15q-.01.13.07.11.11-.02-.01.06-.16.09-.17.25-.01.08.05-.02c.08-.1.1-.1.19.05q.09.13.02.12-.05 0-.05-.03.02-.1-.07-.12h-.07q0 .04-.03.1-.04.09.07 0 .06-.06.04-.02c-.06.06-.06.12-.01.09q.03-.02.03.01 0 .04-.03.06c-.02 0-.04.07-.04.13v.11l.06-.1q.1-.16.12.05c0 .16.06.13.08-.03m1.99.02q-.02-.03-.02.03t.02.04zm-.3 0q0-.06.03-.06t.02-.03.02-.05-.02-.02c-.06.01-.1.12-.07.18q.05.07.03-.03m5.99.01q.07-.04 0-.03-.07 0-.09.03-.03.08.09 0M1.9 7.87q-.02 0-.04.05-.04.07.02.02.03-.05.02-.07m2.39-.05q-.03-.03-.08-.03-.08-.01 0 .05.13.07.08-.02M2.82 7.7q.15-.1.03-.12-.05 0-.05.04 0 .02-.12.05-.14.03-.04.06l.08.03zm1.55-.07q.07.04.04-.03l-.05-.14q-.01-.1-.06-.05a.1.1 0 0 1-.1.01q-.06-.02-.11.1c-.05.1-.04.12 0 .18.06.06.07.06.14-.02q.06-.11.14-.05m4.81-.07q0-.08-.05-.12t-.08.03q-.05.07.01.11.05.05.05.1-.01.08.04 0zm-6.58.09q.05 0 .1-.07.04-.12-.08-.02-.05.04-.02 0 .02-.04-.05-.06-.06-.03-.05-.07c.03-.07-.05-.11-.1-.06q-.05.04.01.07.07.04-.02.04-.06 0-.02.02t.04.1q0 .12.06.07zm6.48.03-.06-.07q-.09-.06-.02.02.08.08.08.05m.38-.2-.01-.04q-.02-.04-.08.02t-.1.05-.05.1v.1l.11-.11zm-6.61-.06q-.05-.2-.05-.05 0 .07-.05.07-.04 0 .01.04.13.08.09-.06m-.18-.02q-.02-.04.03-.02.06.01.06-.01 0-.04-.07-.02-.08.01-.13-.02-.04-.05-.04 0t.08.08q.13.06.07 0m1.67-.18a6 6 0 0 0 .14-1.3c.01-.35.03-.67.05-.7q.03-.06.03.05-.01.17.09-.07.15-.32.43-.29.13.02.12-.06a.4.4 0 0 0-.07-.18.4.4 0 0 1-.07-.18q.01-.08-.1-.05t-.05.1q.09.05-.03.09-.07.02-.1-.06 0-.08-.17-.14-.18-.08-.13 0 .03.06-.02.04-.04-.02-.04.04c0 .03-.06.16-.14.27L4.13 5l.03.37c.02.2.02.73.02 1.17v.84c.05.07.16-.04.16-.15m-.01-1q-.02-.05 0-.07l.03.06q.02.13-.03.01m.04-1.42c.1-.04.4-.08.33-.04l-.23.05zm4.96 2.55q0-.09.03-.01.04.06.03-.01 0-.07-.06-.06c-.06.02-.1.14-.04.14q.03 0 .04-.06m-.04-.13q0-.02-.05.01l-.06.1q0 .06.06-.01zm.8.13h-.12l.06.01q.11 0 .06-.01m-8.2-.1q.06-.19-.13-.14c-.12.03-.12.15.02.2q.1.06.12-.07m.15.03q.04-.11-.07-.06c-.07.02-.07.12 0 .12q.04 0 .07-.06m-.39-.01q-.02-.04-.06-.04-.02 0 0 .04.01.03.05.03.03 0 .01-.03m1.91-.22q-.03-.05.04.01.14.13.2-.01.05-.08.17-.14l.13-.06.02-.47c.01-.28 0-.57-.01-.72q-.09-.58.02-.76c.19-.28.22-.34.22-.4q0-.06-.08-.02a.3.3 0 0 1-.17 0c-.08-.01-.08 0-.06.21q.02.23 0 .14L4 4.6q0-.14-.04-.18t-.03.33v.8c-.03.42-.03.38-.03-.37 0-.58-.01-.85-.05-.92-.03-.08-.03-.13 0-.23q.08-.28-.06 0-.12.25-.04 0c.07-.16.1-.33.07-.3q-.11.08-.3.74l-.17.6c-.1.3-.33.66-.52.88q-.19.2-.2.25 0 .06.08.2l.08.16.16-.24.25-.41a6 6 0 0 0 .4-1.23c.02.06-.16.73-.26 1q-.18.45-.45.8l-.12.2.09.05q.07.06.14.16c.1.21.14.23.38.23.2-.01.22-.02.18-.07M3.43 7l.1-.43.24-.98A7 7 0 0 1 3.43 7m.44-.6q0-.31.01-.16v.35zm-.36-.35q0-.07.02-.03v.07q-.02.02-.02-.04m.03-.1.23-1.47q.03-.2.04-.19a10 10 0 0 1-.27 1.67M4 5.55q0-.08.02-.05v.1q-.01.03-.02-.05m-.2-.28q0-.11.01-.07v.13q-.01.04-.02-.06m-.18-.71q0-.08.01-.04v.08zm.03-.18q0-.08.02-.04v.09q-.02.03-.02-.05m5.82 2.56q-.05-.05-.09-.05-.02 0 .03.05.13.1.06 0m-.04-.12.25-.05q.2-.02.25-.1c.08-.1.18-.28.16-.28-.07 0-.2.1-.24.18-.05.08-.09.1-.26.12q-.26.02-.26.14-.01.05.1-.01m-7.09-.06q0-.04-.04-.05-.02.01-.03.05 0 .05.03.06.04 0 .04-.06m-.07-.12q0-.03-.04-.02-.03.02-.03-.01 0-.04-.04-.02-.08.06.04.08.06 0 .07-.03m7.53-.06c.05-.07.05-.07-.08-.1l-.2-.03q-.04-.02-.08.07c-.06.12-.06.12.13.12q.17 0 .23-.06m-2.44-.35a.2.2 0 0 0 .06-.13q.01-.1-.04-.02-.03.04-.03 0c0-.04-.17-.25-.21-.25q-.02.01.07.1c.16.17.12.22-.04.06q-.12-.12-.14-.1 0 .04.08.1.07.07.1.14.05.06-.09-.05-.22-.2-.03.04.08.1.07.12-.02 0-.1-.06L7 6.08l.04.09q.03.07.1.1.03.01.02.05c-.03.04.13-.03.2-.1m-2.24-.15q.1-.06.11-.1l-.08.04q-.2.13-.02-.05.14-.14.02-.05c-.13.07-.17.04-.04-.04q.17-.13-.05-.03-.25.1-.03-.05.1-.08.04-.06l-.2.05-.15.01.07-.08q.08-.07.02-.06c-.03 0-.08.07-.11.13q-.07.12-.02.2.04.08.09.09.03 0 .04.03c0 .06.19.04.3-.03m4.7-.08q-.03-.04-.07-.01-.03.02.03.08.06.07.07.01zm.22-.09q.03-.06-.03-.03-.05 0-.05-.02t-.04-.01q-.02.01-.03.05 0 .03.03.02t.06.01q.04.08.06-.02M6.64 5q-.04-.02-.07 0-.04 0 .02.02.06 0 .04-.02m-.72-.43c.03-.09-.05-.16-.12-.1-.07.04-.07.06 0 .35l.04.15.03-.18zm.34.12c.03-.15.03-.17-.03-.22q-.06-.06-.1 0c-.04.03-.04.09-.01.26q.05.38.14-.04m.33.19.02-.06c.06-.03-.04-.15-.11-.13s-.09.12-.03.18.15.06.12 0m-1.64-.52c.05-.11.1-.47.08-.55q-.03-.07-.06-.04t-.1.02c-.08-.02-.08-.02-.01.08.05.08.05.1.01.15q-.04.04-.1.01-.06-.04.03-.03.14.01.03-.13-.1-.13.08-.29L5 3.5l-.08-.1c-.1-.12-.24-.18-.32-.12a1 1 0 0 0-.2.28q-.06.1.1.08.1 0 .14.04.02.03-.04.03-.08 0 0 .06.03.06 0 .04-.04-.02-.06.03-.02.08-.13.02-.06-.03 0-.1.07-.06-.01-.04-.18.04-.08.26l.12.13q.08.02 0 .02t-.14-.1q-.08-.14-.05-.04.01.08-.04.08t-.03-.03T4.14 4q-.08 0-.03.05.04.04.1.04.05.01.14.11c.16.19.53.28.6.15m-.25-.13-.08-.05.15-.05q.25-.06.16.07-.07.12-.23.03m1.15.12.09-.07-.1-.07-.13-.07c-.02.02.02.28.04.28zm.45-.1-.01-.15-.12.1-.1.1.09.06q.13.12.14-.12m.24.04q0-.04-.04-.05-.03.01-.01.05l.03.06zm.04-.18c-.05-.08-.15-.09-.15 0s.06.08.08 0q.02-.06.05.06t.04.06zm-.38.01.1-.11-.12.08q-.11.08-.11.11c.02.04.02.04.13-.08m.2-.1q-.02-.04-.03.03 0 .05.02.04t0-.07m-.24-.11q.12-.15-.2-.13t-.18.14c.06.06.33.05.38-.01m-.26 0q-.07-.1.07-.1.09.01.08.05c-.02.05-.11.08-.15.04m-.1-.25q.09-.02.04-.07-.04-.04 0-.07c.06-.03.04-.15-.02-.17q-.04-.02-.03.01c.03.04-.09.05-.15 0q-.06-.02.01-.07.1-.05-.02-.02t-.02-.03c.07-.06.23-.04.28.03.03.06.03.21-.01.25q-.04.04.03.06.16.03.12-.1L6 3.3c.02-.12.2-.17.29-.09q.07.08 0 .04-.07-.02-.06.04 0 .07-.08.08t-.06-.03-.03-.01-.03.08l.03.13q0 .08.03.08l.09.07c.07.08.07.08.13-.06.14-.29.05-.91-.12-.83l-.33.03c-.26 0-.28 0-.33.09q-.09.17 0 .22.05.01 0 .06c-.05.05 0 .32.08.48q.06.14.09.05a.2.2 0 0 1 .1-.09m-.82-.05-.06.03q-.06.05.02.02.05-.03.04-.05" style="fill:#000"/></g></svg>